<svg width="45" height="35" viewBox="0 0 45 35" fill="none" xmlns="http://www.w3.org/2000/svg">
<path d="M23.517 14.5834C23.517 15.9218 22.6999 16.6923 21.2603 16.6923H19.3692V12.4744H21.268C22.6999 12.4744 23.517 13.2371 23.517 14.5834ZM27.2134 19.4548C27.2134 20.1007 27.7737 20.521 28.6531 20.521C29.7737 20.521 30.6141 19.8128 30.6141 18.8167V18.2175L28.7854 18.3342C27.7504 18.4043 27.2134 18.7856 27.2134 19.4548ZM44.824 3.73533V31.1278C44.824 33.19 43.1509 34.8631 41.0886 34.8631H3.73533C1.67312 34.8631 0 33.19 0 31.1278V3.73533C0 1.67312 1.67312 0 3.73533 0H41.0886C43.1509 0 44.824 1.67312 44.824 3.73533ZM9.94532 12.9336C10.599 12.9881 11.2527 12.6067 11.6651 12.1243C12.0698 11.6262 12.3344 10.957 12.2643 10.2799C11.6885 10.3033 10.9725 10.6613 10.5601 11.1593C10.1866 11.5873 9.8675 12.2799 9.94532 12.9336ZM14.6612 18.7311C14.6456 18.7156 13.1359 18.1397 13.1203 16.3965C13.1048 14.9413 14.311 14.2409 14.3655 14.202C13.6806 13.1904 12.6223 13.0814 12.2566 13.0581C11.3072 13.0036 10.4978 13.595 10.0465 13.595C9.58735 13.595 8.90254 13.0814 8.15547 13.097C7.18273 13.1126 6.27224 13.6651 5.78198 14.5444C4.76255 16.3032 5.5174 18.9023 6.5057 20.3342C6.98818 21.0424 7.57183 21.8206 8.33446 21.7894C9.05818 21.7583 9.34611 21.3225 10.2177 21.3225C11.097 21.3225 11.3461 21.7894 12.1087 21.7816C12.9025 21.7661 13.3927 21.0735 13.883 20.3653C14.4199 19.556 14.6456 18.7778 14.6612 18.7311ZM25.1979 14.5756C25.1979 12.5056 23.7583 11.0893 21.7038 11.0893H17.7195V21.7038H19.3692V18.0774H21.6494C23.7349 18.0774 25.1979 16.6456 25.1979 14.5756ZM32.2017 16.4199C32.2017 14.8868 30.9721 13.8985 29.0889 13.8985C27.338 13.8985 26.0462 14.9024 25.9995 16.272H27.4858C27.6103 15.6184 28.2173 15.1903 29.0422 15.1903C30.0539 15.1903 30.6141 15.6573 30.6141 16.5288V17.1125L28.5597 17.237C26.6454 17.3537 25.6104 18.1397 25.6104 19.5015C25.6104 20.8789 26.6765 21.7894 28.2095 21.7894C29.2445 21.7894 30.2017 21.268 30.6375 20.4354H30.6686V21.7116H32.1939V16.4199H32.2017ZM40.1548 13.9997H38.4817L36.544 20.272H36.5129L34.5752 13.9997H32.8398L35.6335 21.7272L35.4856 22.1941C35.2366 22.9879 34.8242 23.2991 34.0927 23.2991C33.9604 23.2991 33.7114 23.2836 33.6102 23.2758V24.552C33.7036 24.5831 34.116 24.5909 34.2405 24.5909C35.8514 24.5909 36.6062 23.9762 37.2677 22.1163L40.1548 13.9997Z" fill="white"/>
</svg>
