<svg width="346" height="140" viewBox="0 0 346 140" fill="none" xmlns="http://www.w3.org/2000/svg">
<path d="M66.37 107.32V108.45H57.88V114.67H64.02V115.8H57.88V124.72H54.96V107.33H66.37V107.32Z" fill="#F5F3F4"/>
<path d="M94.4001 107.32V108.45H85.2301V114.67H91.3701V115.8H85.2301V123.59H94.4001V124.72H82.3101V107.33H94.4001V107.32Z" fill="#F5F3F4"/>
<path d="M111.27 107.32H114.26L121.03 120.66H121.17L127.81 107.32H130.75V124.71H127.81V110.45H127.72L120.58 124.71H119.98L112.77 110.57H112.57V124.71H111.27V107.32Z" fill="#F5F3F4"/>
<path d="M161 107.32V108.45H151.83V114.67H157.97V115.8H151.83V123.59H161V124.72H148.91V107.33H161V107.32Z" fill="#F5F3F4"/>
<path d="M177.87 107.32H179.51L190.91 120.04H191.04V107.32H192.33V125.12H191.65L179.31 110.98H179.2V124.71H177.88V107.32H177.87Z" fill="#F5F3F4"/>
<path d="M210.48 107.32H213.4V124.71H210.48V107.32Z" fill="#F5F3F4"/>
<path d="M231.57 107.32H233.21L244.61 120.04H244.74V107.32H246.03V125.12H245.35L233.01 110.98H232.9V124.71H231.58V107.32H231.57Z" fill="#F5F3F4"/>
<path d="M270.99 106.93L279.18 124.72H276.2L273.55 118.92H266.09L263.35 124.72H261.88L270.26 106.93H270.99ZM266.59 117.79H273.01L269.85 110.9L266.6 117.79H266.59Z" fill="#F5F3F4"/>
<path d="M68.38 72.18C62.94 86.92 53.3 95.08 39.69 95.08C20.08 95.08 5 78.3 5 53.13C5 27.96 20.08 11.29 40.94 11.29C50.8 11.29 59.53 14.8 64.07 20.47C72.23 30.34 63.05 40.99 54.66 24.55C52.62 20.7 47.63 12.42 39.02 12.42C27 12.42 17.25 28.75 17.25 50.85C17.25 72.95 27 89.28 43.33 89.28C54.33 89.28 61.92 81.8 67.59 71.25L68.39 72.16L68.38 72.18Z" fill="#F5F3F4"/>
<path d="M120.43 80.22C116.35 86.57 108.64 95.07 96.62 95.07C82.33 95.07 70.54 82.94 70.54 65.14C70.54 47.34 82.44 34.53 96.5 34.53C110.56 34.53 118.61 46.21 118.61 63.89V65.02H82.78C83.35 79.76 89.81 90.42 100.24 90.42C106.93 90.42 114.98 86.11 119.63 79.42L120.42 80.21L120.43 80.22ZM106.37 63.9C106.37 47.12 102.97 35.67 96.16 35.67C89.35 35.67 82.78 47.35 82.78 63.11V63.9H106.36H106.37Z" fill="#F5F3F4"/>
<path d="M139.83 92.81V93.94H118.97V92.81H121.24C122.6 92.81 123.62 91.9 123.62 90.43V41.11C123.51 37.93 123.51 34.99 123.39 32.38C122.14 32.49 121.01 32.49 119.88 32.49C108.77 32.49 99.7 27.5 99.7 18.66C99.7 11.52 105.82 6.53003 115.8 6.53003C127.25 6.53003 132.47 13.22 134.39 28.86C152.08 22.63 174.87 5.28003 204.8 5.28003C223.05 5.28003 238.02 11.86 241.87 21.49C243.91 26.48 242.44 31.01 237.79 31.01C235.3 31.01 232.23 29.54 228.04 25.68C220.44 18.65 209.67 12.76 196.29 12.76C176.9 12.76 154.11 25.12 134.5 30.22C134.84 33.4 135.07 36.8 135.18 40.54V90.42C135.18 91.89 136.2 92.8 137.56 92.8H139.83V92.81ZM114.32 7.78003C110.13 7.78003 107.86 11.63 107.86 16.85C107.86 25.92 115 30.91 123.28 31.02C122.48 16.39 120.67 7.78003 114.32 7.78003Z" fill="#F5F3F4"/>
<path d="M188.58 80.22C184.5 86.57 176.79 95.07 164.77 95.07C150.48 95.07 138.69 82.94 138.69 65.14C138.69 47.34 150.59 34.53 164.65 34.53C178.71 34.53 186.76 46.21 186.76 63.89V65.02H150.93C151.5 79.76 157.96 90.42 168.39 90.42C175.08 90.42 183.13 86.11 187.78 79.42L188.57 80.21L188.58 80.22ZM174.53 63.9C174.53 47.12 171.13 35.67 164.32 35.67C157.51 35.67 150.94 47.35 150.94 63.11V63.9H174.52H174.53Z" fill="#F5F3F4"/>
<path d="M191.55 50.41C191.55 41.91 199.37 34.54 212.41 34.54C219.44 34.54 227.71 36.81 231.34 42.14C235.99 48.94 227.6 53.59 223.18 44.41C221.71 41.35 217.73 35.68 211.39 35.68C206.06 35.68 201.98 39.87 201.98 44.86C201.98 59.03 235.09 59.37 235.09 77.97C235.09 87.95 225.79 95.09 212.19 95.09C204.59 95.09 196.32 92.93 192.69 87.49C188.04 80.69 196.43 76.15 200.85 85.22C202.32 88.4 206.29 93.95 213.55 93.95C220.35 93.95 224.66 89.19 224.66 83.18C224.66 66.74 191.55 67.88 191.55 50.41Z" fill="#F5F3F4"/>
<path d="M253.68 20.5901V35.6701H272.39V36.9201H253.68V66.6201C253.68 82.2701 254.7 90.4301 261.96 90.4301C267.4 90.4301 272.05 86.1201 276.59 79.4301L277.38 80.2201C273.3 86.5701 266.84 95.0701 255.95 95.0701C245.06 95.0701 242.12 86.4501 242.12 68.3101V36.9101H234.75V35.6601H242.69L252.55 20.5801H253.68V20.5901Z" fill="#F5F3F4"/>
<path d="M277.73 64.81C277.73 47.12 289.75 34.54 303.69 34.54C317.63 34.54 325.8 46.22 325.8 63.9V65.03H289.97C290.54 80 297.23 92.35 311.96 92.35C327.83 92.35 338.26 78.29 332.93 63.21C327.83 48.92 338.71 41.33 340.76 57.32C343.03 76.48 328.51 95.08 306.97 95.08C289.06 95.08 277.72 82.38 277.72 64.81H277.73ZM313.56 63.9C313.56 47.12 310.16 35.67 303.35 35.67C296.54 35.67 289.97 47.35 289.97 63.11V63.9H313.55H313.56Z" fill="#F5F3F4"/>
</svg>
