<svg width="115" height="35" viewBox="0 0 115 35" fill="none" xmlns="http://www.w3.org/2000/svg">
<path d="M50.475 17.7461V22.6358H48.0348V18.128C48.0348 16.7461 47.4258 16.1122 46.4384 16.1122C45.3425 16.1122 44.5763 16.8268 44.5763 18.3504V22.6358H42.1361V18.128C42.1361 16.7461 41.5581 16.1122 40.5397 16.1122C39.4613 16.1122 38.6931 16.8268 38.6931 18.3504V22.6358H36.2568V14.0945H38.5884V15.0788C39.2149 14.3484 40.1518 13.9666 41.2322 13.9666C42.4058 13.9666 43.4067 14.4272 44.0002 15.3642C44.6733 14.4902 45.7673 13.9666 47.0339 13.9666C49.0357 13.9666 50.475 15.1417 50.475 17.7441V17.7461Z" fill="black"/>
<path d="M62.0494 19.063H55.6832C55.9179 20.126 56.8102 20.7776 58.0924 20.7776C58.9846 20.7776 59.6247 20.5079 60.2047 19.9528L61.5024 21.3819C60.7207 22.2874 59.5472 22.7638 58.0303 22.7638C55.1207 22.7638 53.2275 20.9075 53.2275 18.3661C53.2275 15.8248 55.1517 13.9685 57.7161 13.9685C60.2804 13.9685 62.096 15.6516 62.096 18.3976C62.096 18.5886 62.0649 18.8583 62.0494 19.065V19.063ZM55.6522 17.6181H59.7974C59.6247 16.5394 58.8275 15.8406 57.7335 15.8406C56.6395 15.8406 55.8248 16.5236 55.6522 17.6181Z" fill="black"/>
<path d="M78.1763 14.0945L75.127 22.6358H72.78L70.8868 17.3346L68.9316 22.6358H66.5845L63.5508 14.0945H65.8494L67.8356 19.872L69.9014 14.0945H71.9653L73.9671 19.872L76.0154 14.0945H78.1744H78.1763Z" fill="black"/>
<path d="M87.5761 17.7618V22.6358H85.2931V21.5728C84.8392 22.3504 83.9644 22.7638 82.7268 22.7638C80.7561 22.7638 79.5825 21.6535 79.5825 20.1772C79.5825 18.7008 80.63 17.622 83.1962 17.622H85.1359C85.1359 16.559 84.5094 15.939 83.1962 15.939C82.304 15.939 81.3806 16.2401 80.7716 16.7323L79.8948 15.002C80.8181 14.3346 82.1779 13.9705 83.524 13.9705C86.0884 13.9705 87.5761 15.1772 87.5761 17.7638V17.7618ZM85.1359 19.935V19.063H83.462C82.3195 19.063 81.9606 19.4921 81.9606 20.063C81.9606 20.6831 82.4766 21.0945 83.3378 21.0945C84.1506 21.0945 84.8547 20.7126 85.1359 19.935Z" fill="black"/>
<path d="M99.0728 14.0945L95.5212 22.6358H93.0034L89.4692 14.0945H91.987L94.3185 19.9035L96.7277 14.0945H99.0747H99.0728Z" fill="black"/>
<path d="M109.13 19.063H102.764C102.999 20.126 103.891 20.7776 105.173 20.7776C106.066 20.7776 106.706 20.5079 107.286 19.9528L108.583 21.3819C107.802 22.2874 106.628 22.7638 105.111 22.7638C102.202 22.7638 100.309 20.9075 100.309 18.3661C100.309 15.8248 102.233 13.9685 104.797 13.9685C107.361 13.9685 109.177 15.6516 109.177 18.3976C109.177 18.5886 109.146 18.8583 109.13 19.065V19.063ZM102.733 17.6181H106.878C106.706 16.5394 105.909 15.8406 104.815 15.8406C103.721 15.8406 102.906 16.5236 102.735 17.6181H102.733Z" fill="black"/>
<path d="M111.305 21.2067C111.305 20.2855 111.978 19.6831 112.822 19.6831C113.665 19.6831 114.338 20.2855 114.338 21.2067C114.338 22.128 113.665 22.7618 112.822 22.7618C111.978 22.7618 111.305 22.1103 111.305 21.2067Z" fill="black"/>
<path d="M8.86667 18.0541C8.93608 18.2331 9.04015 18.3966 9.17292 18.5353L16.4646 25.827C16.6006 25.9629 16.762 26.0708 16.9396 26.1444C17.1173 26.218 17.3077 26.2559 17.5 26.2559C17.8884 26.2559 18.2608 26.1016 18.5354 25.827C18.6714 25.691 18.7793 25.5296 18.8528 25.3519C18.9264 25.1743 18.9643 24.9839 18.9643 24.7916C18.9643 24.4032 18.81 24.0308 18.5354 23.7561L13.7229 18.9582H24.7917C25.1784 18.9582 25.5494 18.8046 25.8229 18.5311C26.0964 18.2576 26.25 17.8867 26.25 17.4999C26.25 17.1131 26.0964 16.7422 25.8229 16.4687C25.5494 16.1952 25.1784 16.0416 24.7917 16.0416H13.7229L18.5354 11.2436C18.6721 11.1081 18.7806 10.9468 18.8546 10.7691C18.9287 10.5914 18.9668 10.4007 18.9668 10.2082C18.9668 10.0157 18.9287 9.8251 18.8546 9.64739C18.7806 9.46968 18.6721 9.30838 18.5354 9.17281C18.3998 9.03613 18.2386 8.92763 18.0608 8.85359C17.8831 8.77955 17.6925 8.74144 17.5 8.74144C17.3075 8.74144 17.1169 8.77955 16.9392 8.85359C16.7614 8.92763 16.6002 9.03613 16.4646 9.17281L9.17292 16.4645C9.04015 16.6032 8.93608 16.7667 8.86667 16.9457C8.72081 17.3008 8.72081 17.699 8.86667 18.0541Z" fill="black"/>
</svg>
