<svg width="106" height="35" viewBox="0 0 106 35" fill="none" xmlns="http://www.w3.org/2000/svg">
<path d="M8.86667 18.0541C8.93608 18.2331 9.04015 18.3966 9.17292 18.5353L16.4646 25.827C16.6006 25.9629 16.762 26.0708 16.9396 26.1444C17.1173 26.218 17.3077 26.2559 17.5 26.2559C17.8884 26.2559 18.2608 26.1016 18.5354 25.827C18.6714 25.691 18.7793 25.5296 18.8528 25.3519C18.9264 25.1743 18.9643 24.9839 18.9643 24.7916C18.9643 24.4032 18.81 24.0308 18.5354 23.7561L13.7229 18.9582H24.7917C25.1784 18.9582 25.5494 18.8046 25.8229 18.5311C26.0964 18.2576 26.25 17.8867 26.25 17.4999C26.25 17.1131 26.0964 16.7422 25.8229 16.4687C25.5494 16.1952 25.1784 16.0416 24.7917 16.0416H13.7229L18.5354 11.2436C18.6721 11.1081 18.7806 10.9468 18.8546 10.7691C18.9287 10.5914 18.9668 10.4007 18.9668 10.2082C18.9668 10.0157 18.9287 9.8251 18.8546 9.64739C18.7806 9.46968 18.6721 9.30838 18.5354 9.17281C18.3998 9.03613 18.2386 8.92763 18.0608 8.85359C17.8831 8.77955 17.6925 8.74144 17.5 8.74144C17.3075 8.74144 17.1169 8.77955 16.9392 8.85359C16.7614 8.92763 16.6002 9.03613 16.4646 9.17281L9.17292 16.4645C9.04015 16.6032 8.93608 16.7667 8.86667 16.9457C8.72081 17.3008 8.72081 17.699 8.86667 18.0541Z" fill="#F15D8D"/>
<path d="M48.6192 25.3552V25.5906H46.877V26.8863H48.137V27.1216H46.877V28.9797H46.2778V25.3573H48.6192V25.3552Z" fill="#F15D8D"/>
<path d="M54.371 25.3552V25.5906H52.4893V26.8863H53.7493V27.1216H52.4893V28.7443H54.371V28.9797H51.8901V25.3573H54.371V25.3552Z" fill="#F15D8D"/>
<path d="M57.8328 25.3552H58.4463L59.8355 28.134H59.8643L61.2268 25.3552H61.8301V28.9776H61.2268V26.0072H61.2083L59.7432 28.9776H59.6201L58.1406 26.0322H58.0995V28.9776H57.8328V25.3552Z" fill="#F15D8D"/>
<path d="M68.0375 25.3552V25.5906H66.1558V26.8863H67.4158V27.1216H66.1558V28.7443H68.0375V28.9797H65.5566V25.3573H68.0375V25.3552Z" fill="#F15D8D"/>
<path d="M71.4993 25.3552H71.8358L74.1751 28.0048H74.2018V25.3552H74.4665V29.063H74.327L71.7948 26.1176H71.7722V28.9776H71.5013V25.3552H71.4993Z" fill="#F15D8D"/>
<path d="M78.1909 25.3552H78.7901V28.9776H78.1909V25.3552Z" fill="#F15D8D"/>
<path d="M82.5186 25.3552H82.8551L85.1944 28.0048H85.2211V25.3552H85.4858V29.063H85.3462L82.814 26.1176H82.7915V28.9776H82.5206V25.3552H82.5186Z" fill="#F15D8D"/>
<path d="M90.6077 25.2739L92.2883 28.9796H91.6768L91.133 27.7715H89.6022L89.0399 28.9796H88.7383L90.4579 25.2739H90.6077ZM89.7048 27.5361H91.0222L90.3737 26.1009L89.7068 27.5361H89.7048Z" fill="#F15D8D"/>
<path d="M49.0318 18.0354C47.9155 21.1058 45.9374 22.8055 43.1446 22.8055C39.1206 22.8055 36.0261 19.3102 36.0261 14.0672C36.0261 8.82422 39.1206 5.35181 43.4011 5.35181C45.4244 5.35181 47.2158 6.08295 48.1474 7.26403C49.8219 9.31999 47.9381 11.5384 46.2165 8.11391C45.7979 7.31194 44.7739 5.58719 43.0071 5.58719C40.5406 5.58719 38.5399 8.98878 38.5399 13.5923C38.5399 18.1958 40.5406 21.5974 43.8915 21.5974C46.1488 21.5974 47.7062 20.0393 48.8697 17.8417L49.0339 18.0312L49.0318 18.0354Z" fill="#F15D8D"/>
<path d="M59.7126 19.71C58.8754 21.0327 57.2933 22.8033 54.8268 22.8033C51.8944 22.8033 49.4751 20.2766 49.4751 16.5688C49.4751 12.861 51.917 10.1926 54.8021 10.1926C57.6873 10.1926 59.3392 12.6256 59.3392 16.3084V16.5438H51.9868C52.1037 19.6142 53.4293 21.8347 55.5696 21.8347C56.9424 21.8347 58.5943 20.9369 59.5485 19.5434L59.7106 19.7079L59.7126 19.71ZM56.8275 16.3105C56.8275 12.8152 56.1298 10.4301 54.7324 10.4301C53.335 10.4301 51.9868 12.8631 51.9868 16.1459V16.3105H56.8254H56.8275Z" fill="#F15D8D"/>
<path d="M63.6935 22.3326V22.568H59.413V22.3326H59.8788C60.1579 22.3326 60.3672 22.1431 60.3672 21.8369V11.5634C60.3446 10.901 60.3446 10.2885 60.32 9.74488C60.0635 9.76779 59.8316 9.76779 59.5997 9.76779C57.3199 9.76779 55.4587 8.72835 55.4587 6.88695C55.4587 5.39967 56.7146 4.36023 58.7625 4.36023C61.1121 4.36023 62.1832 5.75378 62.5772 9.01165C66.2072 7.71392 70.8838 4.09985 77.0255 4.09985C80.7704 4.09985 83.8423 5.47049 84.6324 7.47645C85.051 8.51589 84.7493 9.4595 83.7951 9.4595C83.2842 9.4595 82.6542 9.15329 81.7944 8.34924C80.2349 6.88487 78.0248 5.65796 75.2792 5.65796C71.3004 5.65796 66.6238 8.23259 62.5998 9.29494C62.6695 9.95734 62.7167 10.6656 62.7393 11.4446V21.8348C62.7393 22.141 62.9486 22.3306 63.2277 22.3306H63.6935V22.3326ZM58.4588 4.62061C57.599 4.62061 57.1332 5.42258 57.1332 6.50992C57.1332 8.39924 58.5983 9.43867 60.2974 9.46158C60.1332 6.4141 59.7618 4.62061 58.4588 4.62061Z" fill="#F15D8D"/>
<path d="M73.6973 19.71C72.86 21.0327 71.2779 22.8033 68.8114 22.8033C65.8791 22.8033 63.4597 20.2766 63.4597 16.5688C63.4597 12.861 65.9016 10.1926 68.7868 10.1926C71.6719 10.1926 73.3238 12.6256 73.3238 16.3084V16.5438H65.9714C66.0884 19.6142 67.414 21.8347 69.5542 21.8347C70.927 21.8347 72.5789 20.9369 73.5331 19.5434L73.6952 19.7079L73.6973 19.71ZM70.8142 16.3105C70.8142 12.8152 70.1165 10.4301 68.7191 10.4301C67.3216 10.4301 65.9734 12.8631 65.9734 16.1459V16.3105H70.8121H70.8142Z" fill="#F15D8D"/>
<path d="M74.3066 13.5006C74.3066 11.73 75.9113 10.1948 78.5871 10.1948C80.0297 10.1948 81.7267 10.6677 82.4716 11.7779C83.4258 13.1944 81.7041 14.163 80.7972 12.2508C80.4955 11.6134 79.6788 10.4323 78.3778 10.4323C77.2841 10.4323 76.4469 11.3051 76.4469 12.3445C76.4469 15.2962 83.2411 15.367 83.2411 19.2414C83.2411 21.3203 81.3327 22.8076 78.542 22.8076C76.9824 22.8076 75.2854 22.3577 74.5405 21.2245C73.5863 19.808 75.308 18.8623 76.215 20.7516C76.5166 21.414 77.3313 22.5701 78.8211 22.5701C80.2164 22.5701 81.1009 21.5786 81.1009 20.3267C81.1009 16.9022 74.3066 17.1397 74.3066 13.5006Z" fill="#F15D8D"/>
<path d="M87.0559 7.28895V10.4302H90.8952V10.6905H87.0559V16.8772C87.0559 20.1371 87.2652 21.8369 88.7549 21.8369C89.8712 21.8369 90.8254 20.9391 91.7571 19.5455L91.9192 19.7101C91.0819 21.0328 89.7563 22.8034 87.5217 22.8034C85.287 22.8034 84.6837 21.0078 84.6837 17.2292V10.6885H83.1714V10.4281H84.8007L86.824 7.28687H87.0559V7.28895Z" fill="#F15D8D"/>
<path d="M91.9911 16.5002C91.9911 12.8153 94.4576 10.1948 97.3181 10.1948C100.179 10.1948 101.855 12.6278 101.855 16.3106V16.546H94.5027C94.6197 19.6643 95.9925 22.2368 99.0151 22.2368C102.272 22.2368 104.412 19.3081 103.318 16.1669C102.272 13.1902 104.504 11.6092 104.925 14.94C105.391 18.9311 102.411 22.8055 97.9912 22.8055C94.316 22.8055 91.989 20.1601 91.989 16.5002H91.9911ZM99.3435 16.3106C99.3435 12.8153 98.6458 10.4302 97.2484 10.4302C95.8509 10.4302 94.5027 12.8632 94.5027 16.1461V16.3106H99.3414H99.3435Z" fill="#F15D8D"/>
</svg>
