<svg width="93" height="25" viewBox="0 0 93 25" fill="none" xmlns="http://www.w3.org/2000/svg">
<path d="M17.3614 18.3258C15.8713 22.3635 13.2306 24.5987 9.50249 24.5987C4.1308 24.5987 0 20.0023 0 13.1075C0 6.21283 4.1308 1.64648 9.8449 1.64648C12.5458 1.64648 14.9372 2.60796 16.1808 4.16112C18.416 6.86477 15.9014 9.78209 13.6032 5.27874C13.0444 4.22413 11.6775 1.95602 9.31896 1.95602C6.02637 1.95602 3.35559 6.42923 3.35559 12.483C3.35559 18.5368 6.02637 23.01 10.4996 23.01C13.5128 23.01 15.5919 20.961 17.145 18.0711L17.3642 18.3204L17.3614 18.3258Z" fill="white"/>
<path d="M31.6193 20.5281C30.5017 22.2676 28.3897 24.5959 25.0971 24.5959C21.1827 24.5959 17.9531 21.2732 17.9531 16.3973C17.9531 11.5214 21.2128 8.01245 25.0642 8.01245C28.9156 8.01245 31.1207 11.2119 31.1207 16.0549V16.3645H21.306C21.4621 20.4021 23.2317 23.3222 26.0887 23.3222C27.9213 23.3222 30.1264 22.1416 31.4001 20.309L31.6165 20.5254L31.6193 20.5281ZM27.7679 16.0577C27.7679 11.4612 26.8365 8.32473 24.9711 8.32473C23.1057 8.32473 21.306 11.5242 21.306 15.8413V16.0577H27.7652H27.7679Z" fill="white"/>
<path d="M36.9333 23.9767V24.2863H31.2192V23.9767H31.841C32.2136 23.9767 32.493 23.7275 32.493 23.3248V9.81477C32.4629 8.94368 32.4629 8.13834 32.43 7.42339C32.0876 7.45352 31.778 7.45353 31.4685 7.45353C28.4252 7.45353 25.9407 6.08663 25.9407 3.66513C25.9407 1.7093 27.6171 0.342407 30.3509 0.342407C33.4873 0.342407 34.9172 2.17497 35.4432 6.45917C40.2889 4.75261 46.5317 0 54.7303 0C59.7294 0 63.8301 1.80243 64.8847 4.44034C65.4435 5.80723 65.0409 7.04811 63.7671 7.04811C63.085 7.04811 62.2441 6.64544 61.0963 5.58809C59.0145 3.66239 56.0643 2.04897 52.3992 2.04897C47.0878 2.04897 40.845 5.43469 35.4733 6.83171C35.5664 7.7028 35.6294 8.63415 35.6596 9.65863V23.3221C35.6596 23.7247 35.939 23.974 36.3115 23.974H36.9333V23.9767ZM29.9455 0.684815C28.7977 0.684815 28.1759 1.73943 28.1759 3.16932C28.1759 5.65383 30.1317 7.02072 32.3998 7.05085C32.1807 3.04332 31.6849 0.684815 29.9455 0.684815Z" fill="white"/>
<path d="M50.2873 20.5281C49.1696 22.2676 47.0577 24.5959 43.7651 24.5959C39.8507 24.5959 36.6211 21.2732 36.6211 16.3973C36.6211 11.5214 39.8808 8.01245 43.7322 8.01245C47.5836 8.01245 49.7887 11.2119 49.7887 16.0549V16.3645H39.9739C40.1301 20.4021 41.8996 23.3222 44.7567 23.3222C46.5893 23.3222 48.7944 22.1416 50.0681 20.309L50.2845 20.5254L50.2873 20.5281ZM46.4386 16.0577C46.4386 11.4612 45.5073 8.32473 43.6418 8.32473C41.7764 8.32473 39.9767 11.5242 39.9767 15.8413V16.0577H46.4359H46.4386Z" fill="white"/>
<path d="M51.1007 12.3626C51.1007 10.0342 53.2428 8.01538 56.8148 8.01538C58.7405 8.01538 61.0058 8.63719 62.0002 10.0972C63.274 11.9599 60.9757 13.2337 59.765 10.719C59.3623 9.88082 58.2721 8.32766 56.5354 8.32766C55.0754 8.32766 53.9577 9.47541 53.9577 10.8423C53.9577 14.7238 63.0274 14.817 63.0274 19.912C63.0274 22.6458 60.4799 24.6016 56.7545 24.6016C54.6727 24.6016 52.4073 24.0099 51.413 22.5198C50.1392 20.6571 52.4374 19.4134 53.6482 21.8979C54.0509 22.769 55.1384 24.2893 57.1271 24.2893C58.9898 24.2893 60.1704 22.9854 60.1704 21.3391C60.1704 16.8358 51.1007 17.1481 51.1007 12.3626Z" fill="white"/>
<path d="M68.1197 4.19366V8.32446H73.2449V8.66687H68.1197V16.8025C68.1197 21.0894 68.3991 23.3246 70.3878 23.3246C71.878 23.3246 73.1518 22.144 74.3954 20.3115L74.6118 20.5279C73.4942 22.2673 71.7246 24.5957 68.7416 24.5957C65.7585 24.5957 64.9532 22.2344 64.9532 17.2654V8.66413H62.9343V8.32172H65.1093L67.8102 4.19092H68.1197V4.19366Z" fill="white"/>
<path d="M74.7078 16.3071C74.7078 11.4614 78.0004 8.01538 81.8189 8.01538C85.6375 8.01538 87.8754 11.2148 87.8754 16.0578V16.3674H78.0607C78.2168 20.4681 80.0494 23.851 84.0843 23.851C88.4315 23.851 91.2885 19.9996 89.8285 15.8688C88.4315 11.9544 91.4118 9.87534 91.9734 14.2554C92.5952 19.5038 88.6178 24.5989 82.7174 24.5989C77.8114 24.5989 74.7051 21.12 74.7051 16.3071H74.7078ZM84.5226 16.0578C84.5226 11.4614 83.5912 8.32492 81.7258 8.32492C79.8604 8.32492 78.0607 11.5244 78.0607 15.8414V16.0578H84.5198H84.5226Z" fill="white"/>
</svg>
