<svg width="100" height="92" viewBox="0 0 100 92" fill="none" xmlns="http://www.w3.org/2000/svg">
<path d="M35.0835 46.5635C35.4728 46.917 35.9346 47.1966 36.4422 47.3864C36.9499 47.5762 37.4935 47.6724 38.0418 47.6695C38.5902 47.6724 39.1338 47.5762 39.6415 47.3864C40.1491 47.1966 40.6108 46.917 41.0002 46.5635L47.2502 40.8432C47.6407 40.4887 47.9507 40.0669 48.1622 39.6022C48.3738 39.1375 48.4827 38.639 48.4827 38.1356C48.4827 37.6321 48.3738 37.1337 48.1622 36.669C47.9507 36.2043 47.6407 35.7825 47.2502 35.428L41.0002 29.7076C40.6117 29.352 40.1505 29.07 39.6429 28.8776C39.1353 28.6851 38.5913 28.5861 38.0418 28.5861C37.4924 28.5861 36.9484 28.6851 36.4408 28.8776C35.9332 29.07 35.472 29.352 35.0835 29.7076C34.695 30.0632 34.3868 30.4853 34.1766 30.9499C33.9663 31.4145 33.8581 31.9124 33.8581 32.4152C33.8581 32.9181 33.9663 33.416 34.1766 33.8806C34.3868 34.3452 34.695 34.7673 35.0835 35.1229L38.3752 38.1356L35.0835 41.1483C34.693 41.5028 34.383 41.9246 34.1715 42.3893C33.9599 42.854 33.851 43.3525 33.851 43.8559C33.851 44.3594 33.9599 44.8578 34.1715 45.3225C34.383 45.7872 34.693 46.209 35.0835 46.5635ZM59.8335 54.1907C57.0482 56.246 53.5781 57.3669 50.0002 57.3669C46.4223 57.3669 42.9522 56.246 40.1668 54.1907C39.3159 53.5434 38.2189 53.2319 37.1172 53.3249C36.0154 53.4179 34.9991 53.9076 34.2918 54.6864C33.5846 55.4652 33.2443 56.4693 33.3459 57.4777C33.4475 58.4861 33.9826 59.4162 34.8335 60.0635C39.0891 63.315 44.4567 65.096 50.0002 65.096C55.5437 65.096 60.9113 63.315 65.1668 60.0635C66.0177 59.4162 66.5529 58.4861 66.6544 57.4777C66.756 56.4693 66.4158 55.4652 65.7085 54.6864C65.3583 54.3008 64.9286 53.9821 64.4438 53.7485C63.959 53.5149 63.4287 53.3709 62.8832 53.3249C61.7814 53.2319 60.6844 53.5434 59.8335 54.1907ZM62.5002 34.322C61.6761 34.322 60.8705 34.5457 60.1853 34.9647C59.5001 35.3838 58.966 35.9794 58.6507 36.6762C58.3353 37.373 58.2528 38.1398 58.4136 38.8796C58.5743 39.6193 58.9712 40.2988 59.5539 40.8322C60.1366 41.3655 60.8791 41.7287 61.6873 41.8759C62.4956 42.023 63.3333 41.9475 64.0947 41.6589C64.8561 41.3702 65.5068 40.8814 65.9646 40.2543C66.4225 39.6271 66.6668 38.8898 66.6668 38.1356C66.6668 37.1242 66.2279 36.1542 65.4465 35.439C64.6651 34.7238 63.6052 34.322 62.5002 34.322ZM50.0002 7.62711C41.7593 7.62711 33.7035 9.86372 26.8514 14.0541C19.9994 18.2445 14.6589 24.2005 11.5052 31.1688C8.35155 38.1372 7.52641 45.805 9.13413 53.2026C10.7418 60.6002 14.7102 67.3953 20.5374 72.7286C26.3646 78.062 33.7889 81.6941 41.8714 83.1655C49.954 84.637 58.3317 83.8818 65.9453 80.9954C73.5589 78.109 80.0663 73.2211 84.6447 66.9497C89.2231 60.6783 91.6668 53.3052 91.6668 45.7627C91.6668 40.7547 90.5891 35.7957 88.4952 31.1688C86.4012 26.542 83.3321 22.338 79.463 18.7968C75.5938 15.2555 71.0006 12.4465 65.9453 10.53C60.8901 8.61351 55.4719 7.62711 50.0002 7.62711ZM50.0002 76.2712C43.4075 76.2712 36.9628 74.4819 31.4812 71.1296C25.9995 67.7773 21.7271 63.0125 19.2042 57.4378C16.6813 51.8631 16.0212 45.7289 17.3073 39.8108C18.5935 33.8927 21.7682 28.4566 26.43 24.1899C31.0917 19.9233 37.0311 17.0176 43.4972 15.8404C49.9632 14.6633 56.6654 15.2674 62.7563 17.5765C68.8472 19.8857 74.0531 23.796 77.7158 28.8131C81.3785 33.8302 83.3335 39.7287 83.3335 45.7627C83.3335 53.854 79.8216 61.614 73.5704 67.3354C67.3192 73.0569 58.8407 76.2712 50.0002 76.2712Z" fill="#F15D8D"/>
</svg>
