<svg width="100" height="100" viewBox="0 0 100 100" fill="none" xmlns="http://www.w3.org/2000/svg">
<path d="M37.5001 48.7916L38.7084 47.5416L39.9167 48.7916C40.3041 49.1821 40.7649 49.4921 41.2727 49.7036C41.7804 49.9152 42.325 50.0241 42.8751 50.0241C43.4251 50.0241 43.9697 49.9152 44.4775 49.7036C44.9852 49.4921 45.4461 49.1821 45.8334 48.7916C46.2239 48.4042 46.5339 47.9434 46.7454 47.4357C46.957 46.9279 47.0659 46.3833 47.0659 45.8333C47.0659 45.2832 46.957 44.7386 46.7454 44.2308C46.5339 43.7231 46.2239 43.2623 45.8334 42.8749L44.5834 41.6666L45.8334 40.4583C46.618 39.6516 47.05 38.5662 47.0344 37.441C47.0187 36.3158 46.5568 35.2429 45.7501 34.4583C44.9434 33.6737 43.858 33.2416 42.7328 33.2573C41.6076 33.2729 40.5347 33.7349 39.7501 34.5416L38.5417 35.7916L37.5001 34.5416C36.7155 33.7349 35.6425 33.2729 34.5173 33.2573C33.3921 33.2416 32.3068 33.6737 31.5001 34.4583C30.6934 35.2429 30.2314 36.3158 30.2158 37.441C30.2001 38.5662 30.6321 39.6516 31.4167 40.4583L32.6667 41.6666L31.4167 42.8749C31.0262 43.2623 30.7162 43.7231 30.5047 44.2308C30.2931 44.7386 30.1842 45.2832 30.1842 45.8333C30.1842 46.3833 30.2931 46.9279 30.5047 47.4357C30.7162 47.9434 31.0262 48.4042 31.4167 48.7916C31.8041 49.1821 32.2649 49.4921 32.7727 49.7036C33.2804 49.9152 33.825 50.0241 34.3751 50.0241C34.9251 50.0241 35.4697 49.9152 35.9775 49.7036C36.4852 49.4921 36.946 49.1821 37.3334 48.7916H37.5001ZM35.0001 63.8749C34.1602 64.5803 33.6324 65.5883 33.531 66.6803C33.4296 67.7724 33.7628 68.8603 34.4584 69.7082C34.8082 70.1302 35.2378 70.4789 35.7225 70.7346C36.2073 70.9902 36.7378 71.1477 37.2835 71.198C37.8293 71.2483 38.3796 71.1905 38.9029 71.0278C39.4262 70.8651 39.9124 70.6008 40.3334 70.2499C43.1187 68.0042 46.5888 66.7796 50.1667 66.7796C53.7446 66.7796 57.2147 68.0042 60.0001 70.2499C60.4211 70.6008 60.9072 70.8651 61.4306 71.0278C61.9539 71.1905 62.5042 71.2483 63.0499 71.198C63.5957 71.1477 64.1261 70.9902 64.6109 70.7346C65.0957 70.4789 65.5253 70.1302 65.8751 69.7082C66.5707 68.8603 66.9039 67.7724 66.8025 66.6803C66.7011 65.5883 66.1732 64.5803 65.3334 63.8749C61.0207 60.3768 55.6365 58.4677 50.0834 58.4677C44.5303 58.4677 39.1461 60.3768 34.8334 63.8749H35.0001ZM50.0001 8.33325C41.7592 8.33325 33.7034 10.777 26.8513 15.3554C19.9993 19.9337 14.6587 26.4412 11.5051 34.0548C8.35143 41.6684 7.52629 50.0461 9.13401 58.1287C10.7417 66.2112 14.7101 73.6355 20.5373 79.4627C26.3645 85.2899 33.7888 89.2583 41.8713 90.866C49.9538 92.4737 58.3316 91.6486 65.9452 88.4949C73.5588 85.3412 80.0662 80.0007 84.6446 73.1487C89.223 66.2966 91.6667 58.2408 91.6667 49.9999C91.6667 44.5282 90.589 39.11 88.495 34.0548C86.4011 28.9995 83.332 24.4062 79.4628 20.5371C75.5937 16.668 71.0004 13.5989 65.9452 11.5049C60.89 9.41099 55.4718 8.33325 50.0001 8.33325ZM50.0001 83.3333C43.4074 83.3333 36.9627 81.3783 31.4811 77.7156C25.9994 74.0529 21.727 68.8469 19.2041 62.756C16.6812 56.6652 16.021 49.9629 17.3072 43.4969C18.5934 37.0309 21.7681 31.0914 26.4298 26.4297C31.0916 21.7679 37.031 18.5933 43.4971 17.3071C49.9631 16.0209 56.6653 16.681 62.7562 19.2039C68.847 21.7269 74.053 25.9993 77.7157 31.4809C81.3784 36.9625 83.3334 43.4072 83.3334 49.9999C83.3334 58.8405 79.8215 67.3189 73.5703 73.5701C67.3191 79.8214 58.8406 83.3333 50.0001 83.3333ZM70.8334 34.5416C70.4461 34.151 69.9852 33.8411 69.4775 33.6295C68.9697 33.418 68.4251 33.3091 67.8751 33.3091C67.325 33.3091 66.7804 33.418 66.2727 33.6295C65.7649 33.8411 65.3041 34.151 64.9167 34.5416L63.7084 35.7916L62.5001 34.5416C61.7155 33.757 60.6513 33.3162 59.5417 33.3162C58.4321 33.3162 57.368 33.757 56.5834 34.5416C55.7988 35.3262 55.358 36.3903 55.358 37.4999C55.358 38.6095 55.7988 39.6737 56.5834 40.4583L57.8334 41.6666L56.5834 42.8749C56.1929 43.2623 55.8829 43.7231 55.6714 44.2308C55.4598 44.7386 55.3509 45.2832 55.3509 45.8333C55.3509 46.3833 55.4598 46.9279 55.6714 47.4357C55.8829 47.9434 56.1929 48.4042 56.5834 48.7916C56.9707 49.1821 57.4316 49.4921 57.9393 49.7036C58.4471 49.9152 58.9917 50.0241 59.5417 50.0241C60.0918 50.0241 60.6364 49.9152 61.1441 49.7036C61.6519 49.4921 62.1127 49.1821 62.5001 48.7916L63.7084 47.5416L64.9167 48.7916C65.3041 49.1821 65.7649 49.4921 66.2727 49.7036C66.7804 49.9152 67.325 50.0241 67.8751 50.0241C68.4251 50.0241 68.9697 49.9152 69.4775 49.7036C69.9852 49.4921 70.4461 49.1821 70.8334 48.7916C71.2239 48.4042 71.5339 47.9434 71.7454 47.4357C71.957 46.9279 72.0659 46.3833 72.0659 45.8333C72.0659 45.2832 71.957 44.7386 71.7454 44.2308C71.5339 43.7231 71.2239 43.2623 70.8334 42.8749L69.5834 41.6666L70.8334 40.4583C71.2239 40.0709 71.5339 39.6101 71.7454 39.1023C71.957 38.5946 72.0659 38.05 72.0659 37.4999C72.0659 36.9499 71.957 36.4053 71.7454 35.8975C71.5339 35.3898 71.2239 34.9289 70.8334 34.5416Z" fill="#F15D8D"/>
</svg>
