<svg width="24" height="25" viewBox="0 0 24 25" fill="none" xmlns="http://www.w3.org/2000/svg">
<path d="M13.2305 2.36703C12.2254 2.32876 11.2231 2.49654 10.2853 2.86006C9.34753 3.22357 8.49403 3.77513 7.77734 4.4808C7.05404 5.17784 6.47938 6.01412 6.08799 6.93923C5.6966 7.86434 5.49658 8.85912 5.5 9.86361V9.89388L3.5957 13.9373C3.52373 14.0897 3.49146 14.2578 3.50188 14.426C3.51231 14.5942 3.56509 14.757 3.65533 14.8993C3.74557 15.0417 3.87032 15.1589 4.018 15.24C4.16568 15.3212 4.33148 15.3637 4.5 15.3636H5.5V17.3636C5.5006 17.8939 5.71151 18.4022 6.08645 18.7772C6.46139 19.1521 6.96975 19.363 7.5 19.3636H8.5V21.3636C8.5 21.6288 8.60535 21.8832 8.79289 22.0707C8.98043 22.2583 9.23478 22.3636 9.5 22.3636C9.76521 22.3636 10.0196 22.2583 10.2071 22.0707C10.3946 21.8832 10.5 21.6288 10.5 21.3636V19.3636C10.7652 19.3636 11.0196 19.2583 11.2071 19.0707C11.3946 18.8832 11.5 18.6288 11.5 18.3636C11.5 18.0984 11.3946 17.844 11.2071 17.6565C11.0196 17.469 10.7652 17.3636 10.5 17.3636H7.5V14.3636C7.50003 14.2323 7.47419 14.1022 7.42395 13.9809C7.3737 13.8596 7.30005 13.7493 7.20718 13.6564C7.11431 13.5636 7.00406 13.4899 6.88272 13.4397C6.76138 13.3894 6.63133 13.3636 6.5 13.3636H6.07617L7.416 10.5194C7.48468 10.3745 7.51719 10.2152 7.51072 10.055C7.51072 10.0448 7.50096 9.87386 7.49998 9.86361C7.49739 9.127 7.64403 8.3975 7.93103 7.7191C8.21804 7.0407 8.63947 6.42745 9.16992 5.91634C9.69968 5.40439 10.3264 5.00351 11.0134 4.73727C11.7003 4.47104 12.4335 4.34483 13.1699 4.36605C14.6301 4.45716 15.999 5.10774 16.9918 6.18244C17.9845 7.25714 18.5247 8.67322 18.5 10.1361L16.5332 17.641C16.4873 17.8162 16.4893 18.0005 16.5391 18.1747L17.5391 21.641C17.5993 21.8493 17.7256 22.0324 17.8989 22.1628C18.0722 22.2932 18.2831 22.3639 18.5 22.3641C18.5938 22.3638 18.6872 22.3505 18.7773 22.3246C19.0322 22.2509 19.2473 22.0791 19.3755 21.8469C19.5037 21.6147 19.5344 21.3411 19.4609 21.0863L18.5371 17.8861L20.4668 10.62C20.4886 10.5362 20.4997 10.4501 20.5 10.3636V10.1361C20.5214 8.15431 19.7776 6.24067 18.4235 4.79352C17.0693 3.34637 15.2093 2.47723 13.2305 2.36703Z" fill="black" fill-opacity="0.4"/>
</svg>
