<svg width="22" height="23" viewBox="0 0 22 23" fill="none" xmlns="http://www.w3.org/2000/svg">
<path d="M15.8952 5.23258C15.6776 5.23258 15.4649 5.30003 15.284 5.42639C15.1031 5.55276 14.9622 5.73236 14.8789 5.9425C14.7956 6.15263 14.7739 6.38386 14.8163 6.60694C14.8587 6.83001 14.9635 7.03492 15.1173 7.19575C15.2712 7.35658 15.4672 7.46611 15.6806 7.51048C15.8939 7.55486 16.1151 7.53208 16.3161 7.44504C16.5171 7.358 16.6889 7.2106 16.8098 7.02149C16.9306 6.83237 16.9952 6.61003 16.9952 6.38258C16.9952 6.07758 16.8793 5.78508 16.673 5.56941C16.4667 5.35374 16.1869 5.23258 15.8952 5.23258ZM20.1118 7.55175C20.094 6.75662 19.9516 5.96993 19.6902 5.223C19.4571 4.58392 19.0943 4.00522 18.6268 3.52675C18.1729 3.03553 17.6181 2.65867 17.0043 2.42466C16.2918 2.14307 15.5384 1.99074 14.7768 1.97425C13.8052 1.91675 13.4935 1.91675 11.0002 1.91675C8.50683 1.91675 8.19516 1.91675 7.2235 1.97425C6.46189 1.99074 5.70856 2.14307 4.996 2.42466C4.38337 2.66104 3.82902 3.03758 3.3735 3.52675C2.90364 4.00129 2.54316 4.58134 2.31933 5.223C2.04998 5.96795 1.90427 6.75552 1.8885 7.55175C1.8335 8.56758 1.8335 8.89341 1.8335 11.5001C1.8335 14.1067 1.8335 14.4326 1.8885 15.4484C1.90427 16.2446 2.04998 17.0322 2.31933 17.7772C2.54316 18.4188 2.90364 18.9989 3.3735 19.4734C3.82902 19.9626 4.38337 20.3391 4.996 20.5755C5.70856 20.8571 6.46189 21.0094 7.2235 21.0259C8.19516 21.0834 8.50683 21.0834 11.0002 21.0834C13.4935 21.0834 13.8052 21.0834 14.7768 21.0259C15.5384 21.0094 16.2918 20.8571 17.0043 20.5755C17.6181 20.3415 18.1729 19.9646 18.6268 19.4734C19.0964 18.9967 19.4595 18.4175 19.6902 17.7772C19.9516 17.0302 20.094 16.2435 20.1118 15.4484C20.1118 14.4326 20.1668 14.1067 20.1668 11.5001C20.1668 8.89341 20.1668 8.56758 20.1118 7.55175ZM18.4618 15.3334C18.4552 15.9417 18.3498 16.5445 18.1502 17.1159C18.0038 17.533 17.7687 17.9098 17.4627 18.218C17.1653 18.5347 16.8056 18.78 16.4085 18.9367C15.8619 19.1454 15.2854 19.2556 14.7035 19.2626C13.7868 19.3105 13.4477 19.3201 11.0368 19.3201C8.626 19.3201 8.28683 19.3201 7.37016 19.2626C6.76598 19.2744 6.16437 19.1771 5.59183 18.9751C5.21213 18.8103 4.86891 18.5657 4.5835 18.2563C4.27924 17.9485 4.0471 17.5713 3.90516 17.1542C3.68136 16.5746 3.55724 15.9582 3.5385 15.3334C3.5385 14.3751 3.4835 14.0205 3.4835 11.5001C3.4835 8.97966 3.4835 8.62508 3.5385 7.66675C3.5426 7.04484 3.6512 6.42853 3.85933 5.84591C4.02071 5.44141 4.26841 5.08084 4.5835 4.79175C4.86199 4.46224 5.20618 4.20055 5.59183 4.02508C6.15058 3.81429 6.73949 3.70412 7.3335 3.69925C8.25016 3.69925 8.58933 3.64175 11.0002 3.64175C13.411 3.64175 13.7502 3.64175 14.6668 3.69925C15.2487 3.70623 15.8252 3.8164 16.3718 4.02508C16.7884 4.18671 17.1623 4.44948 17.4627 4.79175C17.7631 5.08613 17.9978 5.44603 18.1502 5.84591C18.3539 6.42948 18.4593 7.04554 18.4618 7.66675C18.5077 8.62508 18.5168 8.97966 18.5168 11.5001C18.5168 14.0205 18.5077 14.3751 18.4618 15.3334ZM11.0002 6.58383C10.0705 6.58573 9.16221 6.87567 8.3901 7.41702C7.61798 7.95838 7.01668 8.72685 6.66216 9.62535C6.30764 10.5238 6.21583 11.512 6.39831 12.4651C6.58079 13.4181 7.02938 14.2932 7.6874 14.9798C8.34542 15.6664 9.18334 16.1336 10.0953 16.3226C11.0072 16.5115 11.9523 16.4136 12.811 16.0412C13.6697 15.6688 14.4036 15.0387 14.9199 14.2304C15.4363 13.4221 15.7118 12.472 15.7118 11.5001C15.713 10.8533 15.5919 10.2127 15.3555 9.615C15.119 9.01733 14.7718 8.47444 14.334 8.01755C13.8961 7.56065 13.3761 7.19877 12.804 6.95272C12.2318 6.70667 11.6188 6.5813 11.0002 6.58383ZM11.0002 14.6913C10.3964 14.6913 9.80627 14.5042 9.30428 14.1535C8.8023 13.8028 8.41106 13.3044 8.18002 12.7213C7.94898 12.1382 7.88853 11.4965 8.00632 10.8775C8.1241 10.2585 8.41482 9.68983 8.84172 9.24353C9.26862 8.79722 9.81252 8.49329 10.4046 8.37015C10.9968 8.24701 11.6105 8.31021 12.1683 8.55175C12.7261 8.79329 13.2028 9.20232 13.5382 9.72712C13.8736 10.2519 14.0527 10.8689 14.0527 11.5001C14.0527 11.9192 13.9737 12.3341 13.8203 12.7213C13.6669 13.1085 13.4421 13.4603 13.1586 13.7566C12.8752 14.053 12.5387 14.288 12.1683 14.4484C11.798 14.6088 11.401 14.6913 11.0002 14.6913Z" fill="white"/>
</svg>
