<svg width="24" height="24" viewBox="0 0 24 24" fill="none" xmlns="http://www.w3.org/2000/svg">
<path d="M21.0001 4.41L21.7101 3.71C21.8984 3.5217 22.0042 3.2663 22.0042 3C22.0042 2.7337 21.8984 2.47831 21.7101 2.29C21.5218 2.1017 21.2664 1.99591 21.0001 1.99591C20.7338 1.99591 20.4784 2.1017 20.2901 2.29L18.8901 3.7L16.0601 6.53L9.7501 12.83C8.71614 12.1478 7.46577 11.8738 6.24126 12.0609C5.01676 12.248 3.90532 12.883 3.12228 13.8429C2.33925 14.8027 1.94038 16.019 2.00297 17.2561C2.06556 18.4933 2.58515 19.6631 3.46105 20.539C4.33696 21.415 5.50682 21.9345 6.74395 21.9971C7.98109 22.0597 9.19741 21.6608 10.1572 20.8778C11.1171 20.0948 11.7521 18.9833 11.9392 17.7588C12.1263 16.5343 11.8523 15.284 11.1701 14.25L16.7601 8.65L18.8801 10.78C18.9733 10.8726 19.0839 10.9459 19.2055 10.9957C19.327 11.0456 19.4572 11.071 19.5886 11.0706C19.72 11.0701 19.85 11.0438 19.9713 10.993C20.0925 10.9423 20.2025 10.8682 20.2951 10.775C20.3877 10.6818 20.461 10.5712 20.5108 10.4496C20.5607 10.3281 20.5861 10.1979 20.5857 10.0665C20.5852 9.93507 20.5588 9.80505 20.5081 9.68384C20.4574 9.56262 20.3833 9.45258 20.2901 9.36L18.1701 7.24L19.5901 5.83L20.2901 6.53C20.3827 6.62324 20.4927 6.69733 20.6139 6.74804C20.7352 6.79875 20.8652 6.82509 20.9966 6.82556C21.128 6.82602 21.2582 6.8006 21.3797 6.75075C21.5013 6.70089 21.6119 6.62758 21.7051 6.535C21.7983 6.44242 21.8724 6.33238 21.9231 6.21116C21.9738 6.08995 22.0002 5.95993 22.0007 5.82854C22.0011 5.69714 21.9757 5.56694 21.9258 5.44537C21.876 5.3238 21.8027 5.21324 21.7101 5.12L21.0001 4.41ZM7.0001 20C6.40675 20 5.82673 19.8241 5.33339 19.4944C4.84004 19.1648 4.45552 18.6962 4.22846 18.1481C4.00139 17.5999 3.94199 16.9967 4.05774 16.4147C4.1735 15.8328 4.45922 15.2982 4.87878 14.8787C5.29833 14.4591 5.83288 14.1734 6.41483 14.0576C6.99677 13.9419 7.59997 14.0013 8.14815 14.2284C8.69632 14.4554 9.16486 14.8399 9.4945 15.3333C9.82415 15.8266 10.0001 16.4067 10.0001 17C10.0001 17.7957 9.68403 18.5587 9.12142 19.1213C8.55881 19.6839 7.79575 20 7.0001 20Z" fill="black" fill-opacity="0.4"/>
</svg>
