<svg width="45" height="35" viewBox="0 0 45 35" fill="none" xmlns="http://www.w3.org/2000/svg">
<path d="M37.579 29.3613C37.579 29.8904 37.221 30.2717 36.7074 30.2717C36.1782 30.2717 35.8358 29.8671 35.8358 29.3613C35.8358 28.8554 36.1782 28.4508 36.7074 28.4508C37.221 28.4508 37.579 28.8554 37.579 29.3613ZM13.3927 28.4508C12.8402 28.4508 12.5211 28.8554 12.5211 29.3613C12.5211 29.8671 12.8402 30.2717 13.3927 30.2717C13.8985 30.2717 14.2409 29.8904 14.2409 29.3613C14.2332 28.8554 13.8985 28.4508 13.3927 28.4508ZM22.5365 28.4274C22.1163 28.4274 21.8595 28.6998 21.7972 29.1045H23.2836C23.2135 28.6609 22.9412 28.4274 22.5365 28.4274ZM30.9254 28.4508C30.3963 28.4508 30.0772 28.8554 30.0772 29.3613C30.0772 29.8671 30.3963 30.2717 30.9254 30.2717C31.4546 30.2717 31.797 29.8904 31.797 29.3613C31.797 28.8554 31.4546 28.4508 30.9254 28.4508ZM39.1665 30.4819C39.1665 30.5052 39.1898 30.5208 39.1898 30.5675C39.1898 30.5908 39.1665 30.6064 39.1665 30.6531C39.1432 30.6764 39.1432 30.692 39.1276 30.7153C39.1042 30.7387 39.0887 30.7542 39.042 30.7542C39.0186 30.7776 39.0031 30.7776 38.9564 30.7776C38.933 30.7776 38.9175 30.7776 38.8708 30.7542C38.8474 30.7542 38.8319 30.7309 38.8085 30.7153C38.7852 30.692 38.7696 30.6764 38.7696 30.6531C38.7463 30.6141 38.7463 30.5908 38.7463 30.5675C38.7463 30.5285 38.7463 30.5052 38.7696 30.4819C38.7696 30.4429 38.793 30.4196 38.8085 30.3963C38.8319 30.3729 38.8474 30.3729 38.8708 30.3573C38.9097 30.334 38.933 30.334 38.9564 30.334C38.9953 30.334 39.0186 30.334 39.042 30.3573C39.0809 30.3807 39.1042 30.3807 39.1276 30.3963C39.1509 30.4118 39.1432 30.4429 39.1665 30.4819ZM38.9953 30.5908C39.0342 30.5908 39.0342 30.5675 39.0576 30.5675C39.0809 30.5441 39.0809 30.5285 39.0809 30.5052C39.0809 30.4819 39.0809 30.4663 39.0576 30.4429C39.0342 30.4429 39.0186 30.4196 38.972 30.4196H38.8474V30.692H38.9097V30.583H38.933L39.0186 30.692H39.0809L38.9953 30.5908ZM44.824 3.73533V31.1278C44.824 33.19 43.1509 34.8631 41.0886 34.8631H3.73533C1.67312 34.8631 0 33.19 0 31.1278V3.73533C0 1.67312 1.67312 0 3.73533 0H41.0886C43.1509 0 44.824 1.67312 44.824 3.73533ZM4.98044 14.5989C4.98044 20.5521 9.81303 25.3769 15.7584 25.3769C17.8751 25.3769 19.9529 24.7388 21.7116 23.5793C16.0386 18.9646 16.0775 10.2566 21.7116 5.64191C19.9529 4.47462 17.8751 3.84428 15.7584 3.84428C9.81303 3.8365 4.98044 8.66908 4.98044 14.5989ZM22.412 23.0657C27.8983 18.7856 27.8749 10.4434 22.412 6.13995C16.9491 10.4434 16.9257 18.7934 22.412 23.0657ZM11.3383 29.0033C11.3383 28.3263 10.8947 27.8827 10.1943 27.8593C9.83637 27.8593 9.45506 27.9683 9.19825 28.3652C9.01149 28.0461 8.69243 27.8593 8.24886 27.8593C7.95314 27.8593 7.65743 27.9683 7.42397 28.2796V27.9372H6.78585V30.7931H7.42397C7.42397 29.3223 7.22942 28.443 8.12434 28.443C8.9181 28.443 8.76246 29.2367 8.76246 30.7931H9.37724C9.37724 29.369 9.18269 28.443 10.0776 28.443C10.8714 28.443 10.7157 29.2212 10.7157 30.7931H11.3538V29.0033H11.3383ZM14.8324 27.9372H14.2176V28.2796C14.0075 28.0228 13.7118 27.8593 13.3071 27.8593C12.5056 27.8593 11.8908 28.4975 11.8908 29.3613C11.8908 30.2328 12.5056 30.8632 13.3071 30.8632C13.7118 30.8632 14.0075 30.7153 14.2176 30.4429V30.8009H14.8324V27.9372ZM17.9841 29.9293C17.9841 28.762 16.202 29.2912 16.202 28.7465C16.202 28.3029 17.128 28.3729 17.6417 28.6609L17.8985 28.1551C17.167 27.6804 15.5483 27.6881 15.5483 28.7932C15.5483 29.906 17.3304 29.4391 17.3304 29.9605C17.3304 30.4507 16.2798 30.4118 15.7195 30.0227L15.4471 30.513C16.3187 31.1044 17.9841 30.9799 17.9841 29.9293ZM20.7389 30.6531L20.5677 30.1239C20.2719 30.2873 19.6183 30.4663 19.6183 29.8048V28.513H20.6377V27.9372H19.6183V27.0656H18.9801V27.9372H18.3887V28.5052H18.9801V29.8048C18.9801 31.1744 20.3264 30.9254 20.7389 30.6531ZM21.7739 29.6103H23.9139C23.9139 28.3496 23.338 27.8516 22.5598 27.8516C21.735 27.8516 21.1435 28.4663 21.1435 29.3535C21.1435 30.9488 22.9022 31.2134 23.7738 30.4585L23.4781 29.9916C22.8711 30.4896 21.9529 30.4429 21.7739 29.6103ZM26.373 27.9372C26.015 27.7815 25.4703 27.7971 25.1901 28.2796V27.9372H24.552V30.7931H25.1901V29.1823C25.1901 28.2796 25.9294 28.3963 26.1862 28.5286L26.373 27.9372ZM27.1979 29.3613C27.1979 28.4741 28.1006 28.1862 28.8087 28.7076L29.1045 28.2017C28.2017 27.4936 26.5598 27.8827 26.5598 29.369C26.5598 30.9099 28.3029 31.2211 29.1045 30.5363L28.8087 30.0305C28.0928 30.5363 27.1979 30.2328 27.1979 29.3613ZM32.3884 27.9372H31.7503V28.2796C31.1044 27.4236 29.4235 27.906 29.4235 29.3613C29.4235 30.8554 31.1667 31.2834 31.7503 30.4429V30.8009H32.3884V27.9372ZM35.0109 27.9372C34.8242 27.8438 34.1549 27.7115 33.8281 28.2796V27.9372H33.2133V30.7931H33.8281V29.1823C33.8281 28.3263 34.5285 28.3807 34.8242 28.5286L35.0109 27.9372ZM38.1471 26.7777H37.5323V28.2796C36.8942 27.4313 35.2055 27.8827 35.2055 29.3613C35.2055 30.871 36.9564 31.2756 37.5323 30.4429V30.8009H38.1471V26.7777ZM38.7385 20.9334V21.2914H38.8008V20.9334H38.9486V20.8712H38.5906V20.9334H38.7385ZM39.2521 30.5675C39.2521 30.5285 39.2521 30.4819 39.2288 30.4429C39.2054 30.4196 39.1898 30.3807 39.1665 30.3573C39.1432 30.334 39.1042 30.3184 39.0809 30.2951C39.042 30.2951 38.9953 30.2717 38.9564 30.2717C38.933 30.2717 38.8941 30.2951 38.8474 30.2951C38.8085 30.3184 38.7852 30.334 38.7618 30.3573C38.7229 30.3807 38.6996 30.4196 38.6996 30.4429C38.6762 30.4819 38.6762 30.5285 38.6762 30.5675C38.6762 30.5908 38.6762 30.6297 38.6996 30.6764C38.6996 30.6998 38.7229 30.7387 38.7618 30.762C38.7852 30.7854 38.8008 30.8009 38.8474 30.8243C38.8864 30.8476 38.933 30.8476 38.9564 30.8476C38.9953 30.8476 39.042 30.8476 39.0809 30.8243C39.1042 30.8009 39.1432 30.7854 39.1665 30.762C39.1898 30.7387 39.2054 30.6998 39.2288 30.6764C39.2521 30.6297 39.2521 30.5908 39.2521 30.5675ZM39.5011 20.8634H39.3922L39.2677 21.1357L39.1432 20.8634H39.0342V21.2836H39.0965V20.9645L39.221 21.2369H39.3066L39.4155 20.9645V21.2836H39.5011V20.8634ZM39.8435 14.5989C39.8435 8.66908 35.0109 3.8365 29.0655 3.8365C26.9489 3.8365 24.8711 4.47462 23.1124 5.63412C28.7231 10.2488 28.8087 18.9801 23.1124 23.5715C24.8711 24.7388 26.9644 25.3691 29.0655 25.3691C35.0109 25.3769 39.8435 20.5521 39.8435 14.5989Z" fill="white"/>
</svg>
