<svg width="137" height="21" viewBox="0 0 137 21" fill="none" xmlns="http://www.w3.org/2000/svg">
<path d="M27.0882 9.84644V17.9867H22.9316V10.4822C22.9316 8.18168 21.8941 7.12646 20.2123 7.12646C18.3454 7.12646 17.0403 8.31604 17.0403 10.8525V17.9867H12.8837V10.4822C12.8837 8.18168 11.8991 7.12646 10.1644 7.12646C8.32732 7.12646 7.01888 8.31604 7.01888 10.8525V17.9867H2.8689V3.76745H6.84046V5.40599C7.90769 4.1902 9.50359 3.55444 11.344 3.55444C13.343 3.55444 15.0479 4.32128 16.059 5.88117C17.2055 4.42615 19.069 3.55444 21.2266 3.55444C24.6365 3.55444 27.0882 5.51086 27.0882 9.84316V9.84644Z" fill="white"/>
<path d="M46.8038 12.0389H35.9596C36.3594 13.8086 37.8793 14.8933 40.0634 14.8933C41.5833 14.8933 42.6736 14.4443 43.6616 13.5202L45.872 15.8993C44.5405 17.4068 42.5415 18.1999 39.9576 18.1999C35.0014 18.1999 31.7766 15.1096 31.7766 10.8789C31.7766 6.64815 35.0543 3.55786 39.4224 3.55786C43.7904 3.55786 46.8831 6.35976 46.8831 10.9313C46.8831 11.2492 46.8302 11.6981 46.8038 12.0422V12.0389ZM35.9068 9.63357H42.9677C42.6736 7.83773 41.3156 6.67436 39.4521 6.67436C37.5886 6.67436 36.2008 7.81151 35.9068 9.63357Z" fill="white"/>
<path d="M74.2745 3.76758L69.0804 17.9868H65.0824L61.8575 9.16165L58.527 17.9868H54.529L49.3613 3.76758H53.2767L56.6601 13.3858L60.179 3.76758H63.6946L67.1045 13.3858L70.5937 3.76758H74.2712H74.2745Z" fill="white"/>
<path d="M90.2862 9.87269V17.9867H86.3973V16.2171C85.6241 17.5116 84.134 18.1997 82.0259 18.1997C78.6689 18.1997 76.6699 16.3515 76.6699 13.8937C76.6699 11.4359 78.4542 9.64002 82.8255 9.64002H86.1296C86.1296 7.87039 85.0624 6.83811 82.8255 6.83811C81.3056 6.83811 79.7329 7.33951 78.6954 8.15878L77.2019 5.27822C78.7747 4.16729 81.0908 3.56104 83.3839 3.56104C87.752 3.56104 90.2862 5.56989 90.2862 9.87597V9.87269ZM86.1296 13.4906V12.0388H83.2782C81.332 12.0388 80.7208 12.7532 80.7208 13.7036C80.7208 14.7359 81.5997 15.4208 83.0667 15.4208C84.4511 15.4208 85.6505 14.785 86.1296 13.4906Z" fill="white"/>
<path d="M109.87 3.76758L103.82 17.9868H99.5311L93.511 3.76758H97.7998L101.771 13.4382L105.875 3.76758H109.873H109.87Z" fill="white"/>
<path d="M127.002 12.0389H116.158C116.557 13.8086 118.077 14.8933 120.261 14.8933C121.781 14.8933 122.872 14.4443 123.86 13.5202L126.07 15.8993C124.738 17.4068 122.739 18.1999 120.156 18.1999C115.199 18.1999 111.975 15.1096 111.975 10.8789C111.975 6.64815 115.252 3.55786 119.62 3.55786C123.988 3.55786 127.081 6.35976 127.081 10.9313C127.081 11.2492 127.028 11.6981 127.002 12.0422V12.0389ZM116.105 9.63357H123.166C122.872 7.83773 121.514 6.67436 119.65 6.67436C117.787 6.67436 116.399 7.81151 116.108 9.63357H116.105Z" fill="white"/>
<path d="M130.706 15.6077C130.706 14.0741 131.852 13.0713 133.289 13.0713C134.727 13.0713 135.873 14.0741 135.873 15.6077C135.873 17.1414 134.727 18.1966 133.289 18.1966C131.852 18.1966 130.706 17.1119 130.706 15.6077Z" fill="white"/>
</svg>
