<svg width="45" height="35" viewBox="0 0 45 35" fill="none" xmlns="http://www.w3.org/2000/svg">
<path d="M40.6221 0C42.9427 0.000187867 44.8242 1.88147 44.8242 4.20215V30.6611C44.8241 32.9817 42.9426 34.8631 40.6221 34.8633H4.20215C1.88145 34.8632 0.000157978 32.9818 0 30.6611V4.20215C5.36801e-05 1.88139 1.88139 5.33588e-05 4.20215 0H40.6221ZM27.126 13.8516C25.1112 13.8517 24.0459 15.6681 24.0459 17.5947C24.046 19.2753 24.9221 21.161 27.085 21.1611C27.858 21.1611 28.6807 20.7921 29.1289 20.2715V23.0059C29.1291 23.1943 29.2857 23.3457 29.4707 23.3457H30.8643C31.0533 23.3457 31.2059 23.1902 31.2061 23.0059V14.3438C31.206 14.1552 31.0493 14.0039 30.8643 14.0039V13.9912H29.4707C29.2817 13.9912 29.1291 14.1468 29.1289 14.3311V14.6758C28.7136 14.188 28.0265 13.8516 27.126 13.8516ZM19.9219 13.7744C17.5918 13.7746 16.2647 15.3934 16.2646 17.5771C16.2646 20.0619 17.9333 21.2451 19.8691 21.2451C21.8047 21.245 22.9351 20.2434 23.2393 18.9414C23.2804 18.7725 23.1853 18.624 22.9346 18.624H21.8379C21.7146 18.624 21.6032 18.6899 21.5498 18.8135C21.2745 19.415 20.8347 19.7323 19.9883 19.7324C19.0307 19.7324 18.3846 19.1309 18.29 17.9072H23.001C23.2022 17.907 23.3418 17.7585 23.3418 17.5361H23.3457C23.3457 15.0226 21.7138 13.7744 19.9219 13.7744ZM32.4814 13.9297C32.2919 13.9297 32.1396 14.0863 32.1396 14.2715V18.0303C32.1398 20.2654 33.3764 21.167 35.4082 21.167C37.4398 21.1669 38.6757 20.2612 38.6758 18.0303V14.2715C38.6758 14.0821 38.5195 13.9297 38.334 13.9297H36.9287C36.7391 13.9297 36.5869 14.0862 36.5869 14.2715V17.8818C36.5869 19.0468 36.0669 19.3848 35.4033 19.3848C34.74 19.3846 34.2207 19.0424 34.2207 17.8818V14.2715C34.2207 14.0822 34.0643 13.9298 33.8789 13.9297H32.4814ZM14.9248 11.4434H13.5352C13.3466 11.4434 13.1943 11.5996 13.1943 11.7842V17.3438C13.194 17.4583 13.0474 17.4989 12.9941 17.3965L9.7627 11.5908C9.7094 11.4969 9.61542 11.4435 9.50098 11.4434H7.18848C6.99989 11.4434 6.84766 11.5996 6.84766 11.7842V20.667C6.84787 20.8555 7.00411 21.0068 7.18848 21.0068H8.57812C8.76658 21.0068 8.91873 20.8514 8.91895 20.667V14.9395C8.91895 14.8246 9.06578 14.7833 9.11914 14.8857L12.4404 20.8633C12.4937 20.9575 12.5876 21.0116 12.7021 21.0117H14.9121C15.1006 21.0117 15.2528 20.8554 15.2529 20.6709V11.7803C15.2529 11.5958 15.1038 11.4471 14.9248 11.4404V11.4434ZM39.877 13.9297C39.6866 13.9297 39.5322 14.0833 39.5322 14.2725V20.6689C39.5324 20.858 39.6867 21.0117 39.877 21.0117H41.2891C41.4792 21.0115 41.6337 20.8579 41.6338 20.6689V14.2725C41.6338 14.0834 41.4793 13.9299 41.2891 13.9297H39.877ZM27.6895 15.3477C28.6064 15.3477 29.2518 16.0449 29.252 17.5449C29.252 19.0453 28.6065 19.6602 27.6895 19.6602C26.7725 19.6601 26.127 18.9878 26.127 17.5449C26.1271 16.1023 26.7726 15.3478 27.6895 15.3477ZM19.8936 15.2822C20.6003 15.2823 21.2085 15.6942 21.2949 16.584H18.373C18.5745 15.6818 19.1004 15.2822 19.8936 15.2822ZM3.45898 11.4395C3.26774 11.4397 3.1123 11.59 3.1123 11.7754V13.127C3.11234 13.3123 3.26776 13.4627 3.45898 13.4629H5.10059C5.292 13.4629 5.44723 13.3124 5.44727 13.127V11.7754C5.44727 11.5899 5.29203 11.4395 5.10059 11.4395H3.45898Z" fill="white"/>
</svg>
