<svg width="32" height="19" viewBox="0 0 32 19" fill="none" xmlns="http://www.w3.org/2000/svg">
<rect x="0.5" y="0.5" width="31" height="18" rx="3.5" fill="#F15D8D"/>
<rect x="0.5" y="0.5" width="31" height="18" rx="3.5" stroke="white"/>
<path d="M15.9783 15.112C15.2317 15.112 14.5177 15 13.8363 14.776C13.155 14.5427 12.6183 14.244 12.2263 13.88L12.7443 12.788C13.1177 13.1147 13.5937 13.3853 14.1723 13.6C14.751 13.8147 15.353 13.922 15.9783 13.922C16.5477 13.922 17.0097 13.8567 17.3643 13.726C17.719 13.5953 17.9803 13.418 18.1483 13.194C18.3163 12.9607 18.4003 12.6993 18.4003 12.41C18.4003 12.074 18.2883 11.8033 18.0643 11.598C17.8497 11.3927 17.565 11.2293 17.2103 11.108C16.865 10.9773 16.4823 10.8653 16.0623 10.772C15.6423 10.6787 15.2177 10.5713 14.7883 10.45C14.3683 10.3193 13.981 10.156 13.6263 9.96C13.281 9.764 13.001 9.50267 12.7863 9.176C12.5717 8.84 12.4643 8.41067 12.4643 7.888C12.4643 7.384 12.595 6.922 12.8563 6.502C13.127 6.07267 13.5377 5.732 14.0883 5.48C14.6483 5.21867 15.3577 5.088 16.2163 5.088C16.7857 5.088 17.3503 5.16267 17.9103 5.312C18.4703 5.46133 18.9557 5.676 19.3663 5.956L18.9043 7.076C18.4843 6.796 18.041 6.59533 17.5743 6.474C17.1077 6.34333 16.655 6.278 16.2163 6.278C15.6657 6.278 15.213 6.348 14.8583 6.488C14.5037 6.628 14.2423 6.81467 14.0743 7.048C13.9157 7.28133 13.8363 7.54267 13.8363 7.832C13.8363 8.17733 13.9437 8.45267 14.1583 8.658C14.3823 8.86333 14.667 9.02667 15.0123 9.148C15.367 9.26933 15.7543 9.38133 16.1743 9.484C16.5943 9.57733 17.0143 9.68467 17.4343 9.806C17.8637 9.92733 18.251 10.086 18.5963 10.282C18.951 10.478 19.2357 10.7393 19.4503 11.066C19.665 11.3927 19.7723 11.8127 19.7723 12.326C19.7723 12.8207 19.637 13.2827 19.3663 13.712C19.0957 14.132 18.6757 14.4727 18.1063 14.734C17.5463 14.986 16.837 15.112 15.9783 15.112Z" fill="white"/>
</svg>
