<svg width="28" height="28" viewBox="0 0 28 28" fill="none" xmlns="http://www.w3.org/2000/svg">
<path d="M14 2.3335C11.7372 2.3378 9.52451 3.00003 7.63141 4.23952C5.73831 5.47902 4.24652 7.24229 3.33774 9.31456C2.42896 11.3868 2.14241 13.6786 2.51301 15.9109C2.8836 18.1431 3.89533 20.2194 5.42498 21.8868C6.51747 23.0711 7.84341 24.0161 9.31924 24.6626C10.7951 25.309 12.3888 25.6427 14 25.6427C15.6112 25.6427 17.2049 25.309 18.6807 24.6626C20.1565 24.0161 21.4825 23.0711 22.575 21.8868C24.1046 20.2194 25.1164 18.1431 25.4869 15.9109C25.8575 13.6786 25.571 11.3868 24.6622 9.31456C23.7534 7.24229 22.2616 5.47902 20.3685 4.23952C18.4754 3.00003 16.2628 2.3378 14 2.3335ZM14 23.3335C11.5832 23.3298 9.26204 22.3888 7.52498 20.7085C8.05236 19.4246 8.94951 18.3265 10.1024 17.5537C11.2554 16.7809 12.612 16.3683 14 16.3683C15.3879 16.3683 16.7446 16.7809 17.8975 17.5537C19.0504 18.3265 19.9476 19.4246 20.475 20.7085C18.7379 22.3888 16.4168 23.3298 14 23.3335ZM11.6666 11.6668C11.6666 11.2053 11.8035 10.7542 12.0599 10.3705C12.3163 9.98678 12.6807 9.68771 13.107 9.51111C13.5334 9.33451 14.0026 9.2883 14.4552 9.37833C14.9078 9.46836 15.3236 9.69059 15.6499 10.0169C15.9762 10.3432 16.1984 10.759 16.2885 11.2116C16.3785 11.6642 16.3323 12.1334 16.1557 12.5598C15.9791 12.9861 15.68 13.3505 15.2963 13.6069C14.9126 13.8633 14.4615 14.0002 14 14.0002C13.3811 14.0002 12.7876 13.7543 12.3501 13.3167C11.9125 12.8792 11.6666 12.2857 11.6666 11.6668ZM22.0616 18.6668C21.0193 16.8839 19.4149 15.497 17.5 14.7235C18.094 14.0499 18.4811 13.2193 18.6147 12.3312C18.7483 11.4431 18.6229 10.5353 18.2534 9.71674C17.8838 8.89819 17.286 8.20365 16.5315 7.71646C15.7771 7.22926 14.8981 6.97012 14 6.97012C13.1019 6.97012 12.2229 7.22926 11.4684 7.71646C10.714 8.20365 10.1161 8.89819 9.7466 9.71674C9.37709 10.5353 9.25163 11.4431 9.38526 12.3312C9.51889 13.2193 9.90595 14.0499 10.5 14.7235C8.58501 15.497 6.98069 16.8839 5.93831 18.6668C5.10758 17.2518 4.66865 15.641 4.66664 14.0002C4.66664 11.5248 5.64997 9.15084 7.40031 7.4005C9.15065 5.65016 11.5246 4.66683 14 4.66683C16.4753 4.66683 18.8493 5.65016 20.5996 7.4005C22.35 9.15084 23.3333 11.5248 23.3333 14.0002C23.3313 15.641 22.8924 17.2518 22.0616 18.6668Z" fill="white"/>
</svg>
