<svg width="45" height="35" viewBox="0 0 45 35" fill="none" xmlns="http://www.w3.org/2000/svg">
<path d="M36.5829 15.5094C36.5829 15.5094 37.1743 18.4043 37.3066 19.0113H34.7074C34.9643 18.3187 35.9526 15.6261 35.9526 15.6261C35.937 15.6495 36.2094 14.918 36.365 14.4666L36.5829 15.5094ZM44.824 3.73533V31.1278C44.824 33.19 43.1509 34.8631 41.0886 34.8631H3.73533C1.67312 34.8631 0 33.19 0 31.1278V3.73533C0 1.67312 1.67312 0 3.73533 0H41.0886C43.1509 0 44.824 1.67312 44.824 3.73533ZM11.8675 23.2836L16.7856 11.206H13.4783L10.42 19.4548L10.0854 17.7817L8.99592 12.2254C8.81694 11.455 8.26442 11.2371 7.57961 11.206H2.54469L2.49022 11.4472C3.71977 11.7585 4.81702 12.2099 5.7742 12.7779L8.56013 23.2836H11.8675ZM19.2136 23.2991L21.1747 11.206H18.0463L16.0931 23.2991H19.2136ZM30.1005 19.3459C30.1161 17.9685 29.2757 16.9179 27.478 16.0541C26.3808 15.5016 25.7115 15.1281 25.7115 14.56C25.7271 14.0464 26.2796 13.5172 27.5092 13.5172C28.5286 13.4939 29.2757 13.7351 29.836 13.9764L30.1161 14.1087L30.5441 11.4939C29.9293 11.2527 28.9488 10.9803 27.7426 10.9803C24.6532 10.9803 22.482 12.6301 22.4665 14.9802C22.4431 16.7156 24.0228 17.6806 25.2057 18.2642C26.4119 18.8556 26.8243 19.2447 26.8243 19.7661C26.8088 20.5754 25.8438 20.949 24.9489 20.949C23.7038 20.949 23.0345 20.7544 22.0151 20.3031L21.6027 20.1085L21.1669 22.8244C21.8984 23.159 23.2524 23.4548 24.6532 23.4703C27.9372 23.4781 30.0772 21.8517 30.1005 19.3459ZM41.0886 23.2991L38.5673 11.206H36.1471C35.4 11.206 34.832 11.4239 34.5129 12.2099L29.8671 23.2991H33.1511C33.1511 23.2991 33.688 21.805 33.8047 21.4859H37.8202C37.9136 21.9139 38.1938 23.2991 38.1938 23.2991H41.0886Z" fill="white"/>
</svg>
