<svg width="22" height="22" viewBox="0 0 22 22" fill="none" xmlns="http://www.w3.org/2000/svg">
<path d="M15.2168 12.8332C15.0335 12.7416 13.8418 12.1916 13.6585 12.0999C13.4752 12.0082 13.2918 12.0082 13.1085 12.1916C12.9252 12.3749 12.5585 12.9249 12.3752 13.1082C12.2835 13.2916 12.1002 13.2916 11.9168 13.1999C11.2752 12.9249 10.6335 12.5582 10.0835 12.0999C9.62516 11.6416 9.16683 11.0916 8.80016 10.5416C8.7085 10.3582 8.80016 10.1749 8.89183 10.0832C8.9835 9.99155 9.07516 9.80822 9.2585 9.71655C9.35016 9.62489 9.44183 9.44155 9.44183 9.34989C9.5335 9.25822 9.5335 9.07489 9.44183 8.98322C9.35016 8.89155 8.89183 7.79155 8.7085 7.33322C8.61683 6.69155 8.4335 6.69155 8.25016 6.69155C8.1585 6.69155 7.97516 6.69155 7.79183 6.69155C7.6085 6.69155 7.3335 6.87489 7.24183 6.96655C6.69183 7.51655 6.41683 8.15822 6.41683 8.89155C6.5085 9.71655 6.7835 10.5416 7.3335 11.2749C8.34183 12.7416 9.62516 13.9332 11.1835 14.6666C11.6418 14.8499 12.0085 15.0332 12.4668 15.1249C12.9252 15.3082 13.3835 15.3082 13.9335 15.2166C14.5752 15.1249 15.1252 14.6666 15.4918 14.1166C15.6752 13.7499 15.6752 13.3832 15.5835 13.0166C15.5835 13.0166 15.4002 12.9249 15.2168 12.8332ZM17.5085 4.49155C13.9335 0.916553 8.1585 0.916553 4.5835 4.49155C1.65016 7.42489 1.10016 11.9166 3.11683 15.4916L1.8335 20.1666L6.69183 18.8832C8.06683 19.6166 9.5335 19.9832 11.0002 19.9832C16.0418 19.9832 20.0752 15.9499 20.0752 10.9082C20.1668 8.52489 19.1585 6.23322 17.5085 4.49155ZM15.0335 17.3249C13.8418 18.0582 12.4668 18.5166 11.0002 18.5166C9.62516 18.5166 8.34183 18.1499 7.15016 17.5082L6.87516 17.3249L4.0335 18.0582L4.76683 15.3082L4.5835 15.0332C2.3835 11.3666 3.4835 6.78322 7.0585 4.49155C10.6335 2.19989 15.2168 3.39155 17.4168 6.87489C19.6168 10.4499 18.6085 15.1249 15.0335 17.3249Z" fill="white"/>
</svg>
